<svg width="24" height="24" viewBox="0 0 24 24" fill="none" xmlns="http://www.w3.org/2000/svg">
<path d="M15.8459 13.5878C15.6008 13.5878 15.4023 13.3893 15.4023 13.1442C15.4023 11.58 16.6747 10.3076 18.2389 10.3076C18.4841 10.3076 18.6825 10.5061 18.6825 10.7512C18.6825 10.9963 18.4841 11.1948 18.2389 11.1948C17.1533 11.1948 16.2778 12.0703 16.2778 13.1559C16.2778 13.401 16.0794 13.5994 15.8343 13.5994L15.8459 13.5878Z" fill="#46BEAB" fill-opacity="0.75"/>
<path d="M3.37913 13.5878C3.13399 13.5878 2.93555 13.3893 2.93555 13.1442C2.93555 11.58 4.20792 10.3076 5.77212 10.3076C6.01726 10.3076 6.2157 10.5061 6.2157 10.7512C6.2157 10.9963 6.01726 11.1948 5.77212 11.1948C4.68652 11.1948 3.81103 12.0703 3.81103 13.1559C3.81103 13.401 3.61259 13.5994 3.36745 13.5994L3.37913 13.5878Z" fill="#46BEAB" fill-opacity="0.75"/>
<path d="M20.9241 9.85214L17.644 6.63035C17.107 6.22179 16.465 6 15.7879 6C14.784 6 13.8619 6.4786 13.2899 7.28405C12.4728 6.89883 11.5389 6.89883 10.7218 7.28405C9.76459 5.94163 7.75681 5.55642 6.32101 6.66537C6.32101 6.66537 3.09922 9.84047 3.08755 9.85214C2.11868 10.6342 1.5 11.8132 1.5 13.1556C1.5 15.5136 3.4144 17.428 5.77237 17.428C7.42996 17.428 8.85409 16.4708 9.55447 15.0934C9.58949 15.1167 9.61284 15.1401 9.64786 15.1634L10.0097 15.4319C10.5817 15.8638 11.2821 16.0973 11.9942 16.0973C12.7062 16.0973 13.4183 15.8638 13.9786 15.4319L14.4339 15.0934C15.1459 16.4708 16.57 17.428 18.2276 17.428C20.5856 17.428 22.5 15.5136 22.5 13.1556C22.5 11.8249 21.8697 10.6459 20.9125 9.85214H20.9241ZM8.85409 14.5564C8.85409 14.5564 8.81907 14.6148 8.80739 14.6381C8.70234 14.8482 8.57393 15.0467 8.43385 15.2335C8.38716 15.3035 8.32879 15.3619 8.27043 15.4319C8.20039 15.5019 8.13035 15.572 8.06031 15.642C7.9786 15.7121 7.89689 15.7821 7.8035 15.8521C7.74514 15.8988 7.68677 15.9455 7.61673 15.9922C7.46498 16.0973 7.30156 16.179 7.13813 16.249C7.07977 16.2724 7.0214 16.2957 6.96304 16.3191C6.83463 16.3658 6.69455 16.4124 6.55447 16.4475C6.49611 16.4591 6.43774 16.4825 6.3677 16.4942C6.16926 16.5292 5.97082 16.5525 5.7607 16.5525C3.88132 16.5525 2.36381 15.0233 2.36381 13.1556C2.36381 13.1556 2.36381 13.1556 2.36381 13.144C2.36381 12.8988 2.39883 12.6654 2.44553 12.4319C2.44553 12.3852 2.48054 12.3385 2.49222 12.3035C2.53891 12.1051 2.60895 11.9183 2.69066 11.7432C2.69066 11.7198 2.71401 11.6965 2.72568 11.6732C2.81907 11.4747 2.9358 11.2879 3.0642 11.1128C3.0642 11.1128 3.0642 11.1128 3.0642 11.1012C3.20428 10.9144 3.3677 10.7393 3.5428 10.5875C4.13813 10.0739 4.89689 9.75875 5.74903 9.75875C7.6284 9.75875 9.14592 11.2879 9.14592 13.1556C9.14592 13.6576 9.02918 14.1362 8.83074 14.5681L8.85409 14.5564ZM11.9942 11.7082C12.4728 11.7082 12.8697 12.0934 12.8697 12.5837C12.8697 13.0739 12.4844 13.4591 11.9942 13.4591C11.5039 13.4591 11.1187 13.0739 11.1187 12.5837C11.1187 12.0934 11.5039 11.7082 11.9942 11.7082ZM13.9786 14.5447C13.4066 14.9767 12.7062 15.2101 11.9942 15.2101C11.2821 15.2101 10.57 14.9767 10.0097 14.5447L9.83463 14.4047C9.92802 14.1012 9.99806 13.7743 10.0214 13.4475L10.5467 13.8444C11.3872 14.4747 12.6362 14.4747 13.4767 13.8444L14.0019 13.4475C14.0253 13.7743 14.0837 14.1012 14.1887 14.4047L14.0019 14.5447H13.9786ZM18.2276 16.5409C18.0175 16.5409 17.8191 16.5175 17.6206 16.4825C17.5623 16.4825 17.5039 16.4591 17.4455 16.4358C17.3054 16.4008 17.1654 16.3541 17.037 16.3074C16.9786 16.284 16.9202 16.2607 16.8619 16.2374C16.6984 16.1673 16.535 16.0739 16.3833 15.9805C16.3132 15.9339 16.2665 15.8872 16.1965 15.8405C16.1148 15.7704 16.0214 15.7121 15.9397 15.6303C15.8697 15.5603 15.7996 15.4903 15.7296 15.4202C15.6712 15.3619 15.6245 15.2918 15.5661 15.2218C15.4027 15.0117 15.2626 14.7899 15.1459 14.5564C14.9475 14.1245 14.8307 13.6576 14.8307 13.144C14.8307 11.2646 16.3599 9.74708 18.2276 9.74708C19.3249 9.74708 20.2938 10.284 20.9125 11.0895C21.0409 11.2646 21.1576 11.4514 21.251 11.6498C21.2626 11.6732 21.2743 11.6965 21.286 11.7198C21.3677 11.8949 21.4377 12.0934 21.4844 12.2802C21.4844 12.3268 21.5195 12.3619 21.5195 12.4086C21.5661 12.642 21.6012 12.8872 21.6012 13.1323C21.6012 15.0117 20.072 16.5292 18.2043 16.5292L18.2276 16.5409Z" fill="#46BEAB" fill-opacity="0.75"/>
</svg>
