<svg width="24" height="24" viewBox="0 0 24 24" fill="none" xmlns="http://www.w3.org/2000/svg">
<path fill-rule="evenodd" clip-rule="evenodd" d="M4.24315 18.6217C4.14242 19.2725 4.72762 19.8577 5.37843 19.7569L6.5885 22.1771C6.82109 22.6423 7.37143 22.8515 7.85432 22.6584L8.06676 22.5734C8.91113 22.2356 9.42133 21.3708 9.30853 20.4684L9 18.0001L13.2857 14.4287L18.5103 22.2656C18.7901 22.6852 19.3385 22.8308 19.7896 22.6053L20.2243 22.388C20.6694 22.1654 20.8831 21.6494 20.7257 21.1773L19 16.0001L19.7929 15.2072C20.1834 14.8167 20.1834 14.1835 19.7929 13.793L19.2071 13.2072C18.8837 12.8838 18.394 12.8282 18.0134 13.0404L17.1493 10.4479L21.8613 4.85227C22.5053 4.0875 22.457 2.95707 21.75 2.25009C21.043 1.54311 19.9126 1.49475 19.1478 2.13877L13.5522 6.85084L10.9597 5.98666C11.1719 5.60608 11.1163 5.11635 10.7929 4.79298L10.2071 4.2072C9.81658 3.81667 9.18342 3.81667 8.79289 4.2072L8 5.00009L2.82279 3.27435C2.35068 3.11698 1.83469 3.33071 1.61213 3.77582L1.39479 4.2105C1.16925 4.66159 1.3149 5.21002 1.73452 5.48977L9.57143 10.7144L6 15.0001L3.53173 14.6916C2.62934 14.5788 1.76445 15.089 1.4267 15.9333L1.34173 16.1458C1.14857 16.6287 1.35781 17.179 1.82299 17.4116L4.24315 18.6217Z" fill="#91EC00"/>
</svg>
